<?xml version="1.0" standalone="no"?>
<!DOCTYPE svg PUBLIC "-//W3C//DTD SVG 20010904//EN"
 "http://www.w3.org/TR/2001/REC-SVG-20010904/DTD/svg10.dtd">
<svg version="1.0" xmlns="http://www.w3.org/2000/svg"
 width="884.000000pt" height="884.000000pt" viewBox="0 0 884.000000 884.000000"
 preserveAspectRatio="xMidYMid meet">
<metadata>
Created by potrace 1.11, written by Peter Selinger 2001-2013
</metadata>
<g transform="translate(0.000000,884.000000) scale(0.100000,-0.100000)"
fill="#000000" stroke="none">
<path d="M4212 8390 c-7 -205 -82 -1933 -85 -1936 -2 -2 -84 167 -183 375 -98
209 -180 379 -180 378 -1 -1 11 -78 26 -172 15 -93 27 -171 26 -172 -1 -2 -29
63 -61 142 -32 80 -60 143 -62 142 -1 -2 60 -307 136 -678 77 -370 138 -675
137 -676 -1 -2 -108 139 -236 312 -129 172 -235 313 -236 312 -1 -1 11 -62 27
-136 16 -74 28 -136 25 -138 -2 -2 -52 59 -112 136 -60 76 -110 138 -111 137
-1 -1 103 -337 232 -746 129 -409 232 -746 230 -749 -3 -2 -192 48 -420 111
l-416 115 38 -41 c21 -23 67 -72 103 -110 36 -38 56 -66 45 -62 -11 4 -211 77
-444 162 -233 85 -425 153 -427 151 -2 -2 301 -183 672 -402 372 -219 682
-404 690 -409 12 -9 -13 -45 -136 -194 l-151 -184 -66 -156 c-48 -116 -92
-198 -165 -314 l-100 -158 -51 -397 -51 -398 32 -455 31 -455 39 -125 c35
-111 51 -145 152 -310 62 -102 142 -225 179 -274 65 -88 68 -90 297 -242 l231
-152 267 -44 267 -45 272 46 272 47 87 49 c61 35 144 100 279 220 l191 170
165 335 165 335 42 433 42 433 -71 477 c-39 262 -77 488 -85 502 -7 14 -69
120 -138 235 l-124 210 -189 190 -189 190 636 545 c349 300 645 553 657 563
12 9 15 15 7 13 -8 -3 -226 -71 -485 -151 -258 -80 -483 -150 -500 -156 -28
-9 -26 -5 25 48 30 32 136 140 235 241 99 100 175 182 170 182 -6 0 -192 -67
-415 -149 -223 -81 -407 -147 -409 -145 -2 2 2 10 9 19 16 20 3 19 -117 -4
-108 -21 -101 -31 -77 103 16 84 42 145 342 786 178 382 335 720 348 750 l24
55 -57 -62 c-259 -277 -458 -483 -461 -475 -1 5 22 144 52 308 38 204 81 394
136 599 44 165 80 302 79 305 0 3 -16 -24 -35 -60 l-35 -65 5 50 c7 61 12 72
-82 -177 -52 -139 -153 -364 -307 -688 l-230 -482 -5 125 -5 126 -110 -364
c-60 -200 -111 -354 -112 -342 -2 12 -43 576 -93 1252 -98 1335 -96 1315 -98
1235z m514 -4048 l350 -128 212 -174 c124 -101 214 -182 217 -194 8 -39 48
-427 44 -430 -13 -11 -694 -206 -705 -202 -14 5 -563 435 -603 472 -26 24 -41
65 -17 45 9 -7 19 -6 36 6 13 9 20 11 16 4 -6 -8 0 -10 21 -6 31 7 65 11 119
13 19 1 33 5 31 10 -3 4 18 8 46 9 29 1 71 3 94 4 l41 3 -25 65 c-36 95 -233
624 -233 628 0 5 -2 6 356 -125z m-682 -1430 c-3 -27 -7 -33 -26 -36 -7 -1
-23 -7 -35 -14 -12 -7 -26 -12 -31 -12 -14 0 -1 54 15 63 7 5 11 12 9 16 -3 4
12 7 33 7 34 0 38 -3 35 -24z m65 15 c11 4 10 1 -4 -10 -11 -8 -23 -13 -27
-11 -5 3 -8 0 -8 -5 0 -6 -4 -11 -9 -11 -11 0 -9 19 3 38 6 9 12 10 18 4 6 -6
18 -8 27 -5z m126 -348 c-3 -13 0 -19 8 -16 7 2 12 9 12 15 0 5 3 13 7 17 3 4
5 -1 4 -12 -4 -24 14 -35 33 -20 12 9 13 9 7 0 -4 -8 -1 -13 9 -13 9 0 14 4
11 9 -3 5 2 15 12 22 15 13 16 12 3 -3 -7 -10 -10 -18 -6 -18 4 0 2 -7 -5 -15
-7 -8 -17 -12 -24 -8 -19 12 -33 11 -33 -1 0 -7 12 -12 26 -11 14 1 30 -3 34
-9 6 -7 7 -5 4 6 -3 9 1 19 9 22 9 3 13 10 9 15 -3 5 -1 12 4 15 5 4 8 -2 7
-11 -3 -17 10 -33 28 -33 5 0 3 6 -3 14 -8 10 -9 16 -1 21 6 4 9 1 8 -6 -2 -7
3 -13 10 -14 6 0 12 -3 12 -7 0 -31 -1 -32 -10 -18 -8 12 -10 12 -10 1 0 -11
-3 -11 -15 -1 -8 7 -15 9 -15 4 0 -5 -5 -2 -10 6 -7 12 -9 10 -7 -7 1 -15 5
-19 13 -13 6 6 14 6 18 2 4 -4 17 -7 29 -7 12 -1 21 -6 20 -12 -1 -6 5 -10 14
-9 18 3 34 35 25 50 -3 5 -1 6 5 3 11 -7 11 -36 0 -54 -4 -6 -2 -15 4 -19 7
-4 9 -3 5 4 -3 6 -2 13 4 17 9 6 14 -8 11 -28 -1 -5 3 -6 8 -2 6 3 7 13 4 23
-6 15 -5 15 10 3 9 -7 14 -18 10 -25 -4 -6 -1 -6 9 2 12 10 17 10 27 -1 6 -8
7 -18 3 -23 -4 -4 1 -2 11 5 9 7 16 21 16 30 -1 13 -2 13 -6 -2 -2 -9 -9 -15
-14 -11 -5 3 -6 10 -3 16 4 6 2 8 -4 4 -6 -3 -13 -2 -17 4 -4 6 -10 8 -15 5
-5 -3 -11 -1 -14 4 -4 5 -2 12 4 16 6 4 7 12 4 18 -4 7 -3 8 2 4 5 -5 9 -13 9
-18 0 -5 5 -8 10 -6 6 1 9 7 7 12 -2 6 0 6 5 2 4 -5 8 -13 8 -18 0 -5 5 -8 10
-6 6 1 9 6 7 10 -1 5 2 6 7 3 5 -3 8 -21 7 -40 -1 -19 2 -32 6 -30 5 3 8 15 8
27 0 17 2 19 9 8 5 -8 7 -23 5 -34 -3 -16 -1 -18 8 -9 11 11 17 29 20 57 1 6
18 9 39 8 33 -2 37 1 34 18 -2 11 0 17 5 14 5 -3 7 -14 5 -25 -2 -11 0 -20 5
-20 5 0 7 -7 3 -15 -5 -13 -8 -13 -20 5 -11 15 -18 18 -27 11 -7 -6 -15 -8
-18 -5 -3 3 -9 1 -12 -4 -3 -6 2 -9 11 -8 10 2 21 -2 25 -8 5 -7 8 -6 8 3 0
11 4 10 14 -4 13 -18 14 -18 25 3 7 13 9 28 6 35 -4 6 0 4 8 -5 8 -10 20 -18
27 -18 9 0 7 7 -6 23 -15 17 -13 17 11 -4 38 -33 59 -40 75 -26 9 9 11 9 7 1
-4 -7 -1 -14 7 -17 15 -6 16 -23 2 -46 -7 -11 -6 -12 5 -5 21 13 39 14 39 1 0
-5 3 -7 6 -4 10 10 -17 38 -29 30 -6 -3 -7 -1 -3 6 4 6 4 18 -1 24 -4 7 0 4
10 -6 9 -11 17 -15 17 -11 1 5 7 -2 14 -16 8 -14 12 -29 8 -35 -3 -5 3 -3 13
5 17 13 18 13 13 -1 -4 -9 -1 -16 7 -16 10 0 11 5 4 19 -6 10 -14 16 -20 13
-9 -6 -10 -3 -13 33 -1 9 -5 24 -11 32 -7 13 -6 13 7 2 9 -7 15 -21 13 -30 -2
-17 11 -32 29 -32 5 0 3 8 -5 18 -12 16 -12 16 6 0 18 -17 20 -17 39 0 14 12
17 12 9 2 -8 -10 -9 -21 -3 -30 6 -8 10 -10 10 -5 0 7 3 7 8 0 4 -5 16 -15 26
-21 11 -6 22 -17 24 -25 3 -9 -2 -8 -17 5 -11 11 -24 16 -28 13 -3 -4 -15 5
-25 20 -10 17 -18 22 -18 13 0 -13 -1 -13 -10 0 -6 9 -10 10 -10 3 0 -6 5 -15
10 -18 6 -4 7 -12 3 -18 -4 -7 2 -5 12 3 17 14 18 13 12 -2 -5 -13 -1 -16 19
-12 15 3 23 0 22 -7 -2 -6 5 -13 15 -14 11 -2 20 -5 22 -7 5 -6 34 -112 31
-115 -2 -2 -131 -9 -287 -15 l-283 -12 -147 154 c-81 85 -145 159 -142 164 3
5 2 6 -4 3 -12 -8 -70 53 -67 71 3 19 4 22 8 22 3 0 3 -9 1 -21z m214 -16 c-1
-5 0 -10 1 -13 1 -3 4 -18 6 -34 5 -26 3 -28 -11 -16 -11 9 -12 16 -5 25 8 9
8 15 0 20 -6 3 -8 11 -5 16 7 11 15 12 14 2z m74 -25 c-8 -13 -9 -18 -12 -39
0 -5 -6 -7 -12 -3 -8 4 -7 9 2 15 8 5 10 9 5 9 -5 0 -3 7 4 15 15 18 24 20 13
3z m197 -13 c0 -2 -6 -8 -13 -14 -10 -8 -14 -7 -14 2 0 8 6 14 14 14 7 0 13
-1 13 -2z m122 -30 c2 3 5 -2 5 -10 0 -19 1 -20 -28 12 -17 20 -18 23 -3 10
11 -9 23 -15 26 -12z m33 -4 c3 -5 2 -12 -3 -15 -5 -3 -9 1 -9 9 0 17 3 19 12
6z m60 -21 c10 -11 16 -20 13 -20 -3 0 -13 9 -23 20 -10 11 -16 20 -13 20 3 0
13 -9 23 -20z m105 -26 c0 -8 -19 -13 -24 -6 -3 5 1 9 9 9 8 0 15 -2 15 -3z"/>
<path d="M4420 4425 c0 -2 6 -8 13 -14 10 -8 14 -7 14 2 0 8 -6 14 -14 14 -7
0 -13 -1 -13 -2z"/>
<path d="M4464 4406 c0 -23 17 -29 33 -12 4 4 1 6 -7 4 -8 -1 -14 2 -15 9 0
23 -11 22 -11 -1z"/>
<path d="M4533 4385 c0 -8 4 -12 9 -9 5 3 6 10 3 15 -9 13 -12 11 -12 -6z"/>
<path d="M4505 4381 c-3 -5 -2 -12 3 -15 5 -3 9 1 9 9 0 17 -3 19 -12 6z"/>
<path d="M4533 4345 c0 -8 4 -12 9 -9 5 3 6 10 3 15 -9 13 -12 11 -12 -6z"/>
<path d="M4505 4341 c-3 -5 -2 -12 3 -15 5 -3 9 1 9 9 0 17 -3 19 -12 6z"/>
<path d="M4330 3732 c0 -6 -9 -9 -20 -7 -11 2 -22 -1 -26 -7 -4 -6 -10 -5 -15
3 -6 10 -9 10 -9 2 0 -7 -9 -10 -21 -8 -17 3 -19 1 -9 -9 11 -14 26 -16 45 -5
6 4 18 5 27 4 19 -3 45 21 34 32 -3 3 -6 1 -6 -5z"/>
<path d="M4375 3731 c-3 -5 -2 -12 3 -15 5 -3 9 1 9 9 0 17 -3 19 -12 6z"/>
<path d="M3981 2916 c-8 -10 -9 -16 -1 -21 6 -4 9 -2 8 3 -2 6 2 10 7 10 6 0
9 -3 8 -7 -1 -4 4 -8 11 -8 6 0 13 10 14 21 1 17 -1 18 -8 6 -7 -10 -10 -11
-10 -2 0 16 -15 15 -29 -2z"/>
<path d="M4066 2922 c-3 -5 1 -9 9 -9 8 0 12 4 9 9 -3 4 -7 8 -9 8 -2 0 -6 -4
-9 -8z"/>
<path d="M4250 2551 c0 -6 4 -13 10 -16 6 -3 7 1 4 9 -7 18 -14 21 -14 7z"/>
<path d="M4773 2455 c0 -8 4 -12 9 -9 4 3 8 -1 8 -8 0 -10 2 -10 9 1 7 11 11
10 20 -5 7 -13 10 -14 11 -5 0 11 5 9 22 -5 12 -10 18 -14 15 -7 -4 6 -3 14 2
17 5 4 12 -1 14 -9 4 -11 4 -10 3 2 -1 11 -9 18 -22 18 -12 0 -28 6 -37 13
-11 9 -17 10 -22 2 -5 -8 -11 -8 -19 -1 -9 8 -13 7 -13 -4z"/>
</g>
</svg>
